<?xml version="1.0" encoding="UTF-8" standalone="no"?>
<!DOCTYPE svg PUBLIC "-//W3C//DTD SVG 1.1//EN" "http://www.w3.org/Graphics/SVG/1.1/DTD/svg11.dtd">
<svg xmlns="http://www.w3.org/2000/svg" version="1.1" viewBox="0.00 0.00 800.00 264.00">
<path stroke="#6fbff5" stroke-width="2.00" fill="none" stroke-linecap="butt" vector-effect="non-scaling-stroke" d="
  M 179.78 86.69
  Q 178.85 86.36 177.76 86.54
  Q 177.26 86.62 176.91 86.99
  L 164.23 100.34"
/>
<path fill="#71b3f5" d="
  M 179.78 86.69
  Q 178.85 86.36 177.76 86.54
  Q 177.26 86.62 176.91 86.99
  L 164.23 100.34
  Q 158.66 98.51 150.75 98.85
  Q 146.56 99.04 143.53 100.78
  Q 140.93 102.28 133.44 109.93
  Q 121.16 122.50 107.78 134.78
  C 103.35 138.85 99.13 143.55 94.50 147.60
  C 91.88 149.90 89.79 152.61 87.01 154.78
  C 82.32 158.46 76.48 162.91 70.52 163.59
  Q 61.77 164.57 54.05 164.20
  Q 49.25 163.96 43.71 160.58
  Q 43.49 160.45 43.23 160.48
  Q 42.81 160.52 42.49 160.25
  L 39.30 157.52
  Q 38.85 157.14 38.26 157.16
  C 34.63 157.32 27.40 150.70 25.80 147.44
  C 25.24 146.31 24.36 145.96 23.71 144.97
  Q 20.62 140.28 18.99 135.44
  Q 17.46 130.89 16.59 124.92
  C 14.70 111.90 17.81 97.80 22.85 85.50
  Q 24.10 82.45 25.88 79.51
  C 27.44 76.92 28.45 74.08 30.06 71.51
  Q 39.53 56.44 53.67 46.84
  Q 62.91 40.57 71.77 36.54
  C 74.78 35.17 78.08 34.60 81.02 33.19
  C 83.72 31.89 86.92 31.60 89.81 30.98
  Q 92.21 30.46 94.63 30.27
  Q 104.87 29.47 115.81 30.01
  Q 119.01 30.17 122.04 30.74
  Q 124.14 31.13 127.83 32.51
  Q 134.10 34.85 141.78 37.14
  Q 145.79 38.33 150.51 42.02
  Q 150.97 42.37 150.60 42.82
  C 142.41 52.93 132.58 60.36 124.15 69.64
  Q 109.86 85.40 97.68 97.93
  Q 93.72 102.01 89.31 105.91
  Q 88.10 106.99 86.49 107.75
  C 84.45 108.70 81.90 111.99 79.83 109.00
  C 75.80 103.14 70.32 98.95 63.13 98.91
  Q 58.68 98.89 54.09 98.56
  Q 52.02 98.42 50.31 99.28
  Q 47.70 100.59 45.23 102.31
  Q 39.96 105.97 37.61 112.24
  Q 36.60 114.92 36.68 117.78
  Q 36.76 120.75 36.82 123.50
  Q 36.96 129.23 39.79 132.73
  Q 40.72 133.88 41.24 135.07
  Q 41.45 135.55 41.85 135.89
  Q 42.81 136.71 43.15 137.94
  Q 43.28 138.39 43.69 138.60
  C 47.63 140.59 51.59 143.89 56.27 143.47
  Q 60.29 143.12 63.48 143.47
  Q 65.77 143.73 67.49 142.85
  Q 74.27 139.40 76.98 136.73
  C 80.44 133.32 83.92 130.22 86.97 126.42
  Q 90.04 122.60 93.65 118.94
  C 103.10 109.34 112.71 99.35 122.89 90.22
  Q 128.21 85.46 131.60 83.36
  Q 150.24 71.80 171.76 81.05
  Q 175.68 82.74 179.78 86.69
  Z
  M 95.28 51.60
  Q 85.19 52.06 73.77 57.45
  Q 67.89 60.23 63.18 64.44
  Q 58.06 69.01 53.78 73.88
  A 2.21 2.20 31.9 0 0 54.60 77.38
  Q 56.04 77.97 57.65 77.61
  Q 59.39 77.22 61.33 77.51
  C 68.23 78.56 73.45 80.25 79.44 82.80
  A 2.57 2.57 0.0 0 0 82.26 82.26
  Q 93.79 70.71 106.20 58.22
  Q 109.04 55.36 110.92 52.44
  A 0.89 0.89 0.0 0 0 110.22 51.07
  Q 107.15 50.92 104.38 49.84
  Q 103.89 49.65 103.35 49.70
  L 95.60 50.43
  A 0.21 0.20 -79.9 0 0 95.43 50.56
  Q 95.37 50.75 95.51 50.86
  Q 96.38 51.55 95.28 51.60
  Z"
/>
<path fill="#6ccbf4" d="
  M 179.78 86.69
  Q 187.43 91.77 193.00 102.00
  Q 197.06 109.43 196.51 115.36
  C 195.97 121.06 196.21 127.10 196.46 132.73
  C 196.89 142.72 193.80 152.01 189.24 161.01
  Q 180.11 179.02 163.06 192.92
  Q 153.30 200.89 139.03 206.65
  Q 128.42 210.94 118.55 211.11
  Q 106.57 211.33 95.55 211.57
  Q 91.30 211.67 83.33 208.78
  Q 75.03 205.78 67.75 202.36
  Q 65.69 201.39 64.00 199.68
  Q 63.61 199.30 63.95 198.87
  Q 65.24 197.23 66.77 195.72
  C 75.54 187.00 84.28 178.64 92.46 169.56
  C 96.30 165.30 100.51 161.68 104.31 157.60
  Q 115.65 145.45 127.57 134.01
  C 129.66 132.00 131.40 130.64 133.68 133.43
  C 135.19 135.30 137.21 136.41 138.95 138.20
  Q 143.15 142.50 148.87 143.62
  Q 163.43 146.49 172.34 136.53
  Q 176.99 131.35 177.85 124.56
  C 179.24 113.66 174.81 104.75 164.23 100.34
  L 176.91 86.99
  Q 177.26 86.62 177.76 86.54
  Q 178.85 86.36 179.78 86.69
  Z
  M 111.82 191.95
  Q 118.45 191.60 123.11 190.32
  Q 128.60 188.82 135.99 186.30
  Q 146.55 182.71 157.30 172.29
  Q 160.02 169.66 160.15 166.10
  A 0.95 0.95 0.0 0 0 159.24 165.11
  Q 150.08 164.81 138.08 160.50
  Q 133.98 159.03 131.32 160.97
  Q 127.50 163.75 122.77 168.56
  Q 113.82 177.67 105.17 186.21
  C 104.12 187.25 102.34 189.08 103.22 190.66
  C 104.42 192.79 109.66 192.06 111.82 191.95
  Z"
/>
<path fill="#1c1d1f" d="
  M 428.29 113.41
  Q 428.91 115.29 430.45 113.91
  C 436.32 108.65 440.95 106.27 449.27 107.45
  Q 457.66 108.65 462.28 114.12
  C 470.86 124.32 470.30 140.62 459.56 148.78
  C 451.35 155.01 439.96 155.02 432.80 147.27
  Q 431.71 146.08 430.09 146.05
  A 1.37 1.37 0.0 0 0 428.70 147.54
  L 429.07 151.44
  Q 429.15 152.27 428.32 152.33
  L 425.11 152.55
  Q 423.86 152.63 423.89 151.37
  Q 424.29 136.24 423.71 121.28
  Q 423.45 114.45 423.66 94.08
  C 423.67 92.42 423.29 90.82 422.98 89.20
  Q 422.84 88.49 423.56 88.51
  L 427.17 88.58
  Q 428.02 88.59 427.98 89.45
  C 427.73 95.22 427.47 101.48 428.10 107.31
  Q 428.41 110.20 428.24 112.98
  A 1.06 1.05 38.5 0 0 428.29 113.41
  Z
  M 462.9294 126.3513
  A 15.80 15.80 0.0 0 0 446.3241 111.3999
  L 443.4281 111.5517
  A 15.80 15.80 0.0 0 0 428.4766 128.1569
  L 428.7906 134.1487
  A 15.80 15.80 0.0 0 0 445.3959 149.1001
  L 448.2919 148.9483
  A 15.80 15.80 0.0 0 0 463.2434 132.3431
  L 462.9294 126.3513
  Z"
/>
<path fill="#1c1d1f" d="
  M 484.53 91.49
  L 484.32 96.80
  A 0.96 0.96 0.0 0 1 483.34 97.72
  L 480.31 97.66
  A 0.96 0.96 0.0 0 1 479.38 96.82
  L 478.70 91.51
  A 0.96 0.96 0.0 0 1 479.67 90.43
  L 483.59 90.49
  A 0.96 0.96 0.0 0 1 484.53 91.49
  Z"
/>
<path fill="#1c1d1f" d="
  M 616.09 96.99
  L 615.86 91.29
  A 0.68 0.68 0.0 0 1 616.52 90.58
  L 620.61 90.48
  A 0.68 0.68 0.0 0 1 621.31 91.11
  L 621.68 97.10
  A 0.68 0.68 0.0 0 1 620.98 97.82
  L 616.75 97.65
  A 0.68 0.68 0.0 0 1 616.09 96.99
  Z"
/>
<path fill="#1c1d1f" d="
  M 509.53 107.41
  Q 513.67 108.07 518.36 107.47
  Q 520.35 107.22 520.28 109.23
  L 520.26 109.82
  Q 520.19 111.83 518.18 111.76
  L 509.34 111.46
  Q 508.58 111.43 508.47 112.18
  C 508.23 113.87 508.75 115.47 508.71 117.12
  Q 508.53 124.59 508.86 129.59
  Q 509.57 140.30 509.20 151.83
  Q 509.18 152.58 508.43 152.55
  L 505.31 152.42
  A 0.69 0.68 88.6 0 1 504.65 151.79
  Q 504.50 150.06 504.48 148.46
  Q 504.25 131.98 504.03 115.47
  Q 504.02 114.28 503.96 113.06
  A 1.68 1.67 87.6 0 0 502.23 111.46
  L 495.92 111.69
  Q 493.82 111.77 493.75 109.67
  L 493.74 109.18
  Q 493.67 107.25 495.58 107.49
  Q 498.63 107.86 501.90 107.55
  Q 503.85 107.37 503.80 105.41
  L 503.48 91.94
  Q 503.46 90.84 504.56 90.85
  L 507.02 90.88
  Q 508.13 90.90 508.18 92.01
  L 508.78 106.57
  Q 508.81 107.30 509.53 107.41
  Z"
/>
<path fill="#1c1d1f" d="
  M 261.42 98.47
  C 252.75 95.09 240.41 95.93 233.53 102.32
  Q 228.29 107.19 227.00 114.89
  C 226.52 117.81 225.73 120.73 226.17 123.74
  C 227.33 131.66 229.00 138.66 235.75 143.57
  C 247.61 152.19 263.53 150.67 271.48 137.81
  Q 272.53 136.11 274.52 136.10
  L 275.45 136.09
  Q 277.63 136.07 276.53 137.95
  Q 270.14 148.94 259.38 152.06
  Q 249.53 154.91 239.82 150.93
  Q 228.42 146.26 223.69 133.78
  Q 222.54 130.76 221.94 124.54
  C 219.84 103.02 236.38 88.03 257.61 92.92
  Q 270.37 95.86 276.12 107.67
  Q 276.95 109.37 275.05 109.30
  L 274.19 109.27
  Q 272.17 109.19 271.15 107.44
  Q 267.27 100.75 261.42 98.47
  Z"
/>
<path fill="#1c1d1f" d="
  M 534.93 118.09
  A 0.99 0.97 29.6 0 0 536.13 117.77
  C 540.40 111.77 543.10 107.23 551.55 107.05
  Q 552.27 107.04 552.27 107.76
  L 552.24 111.74
  Q 552.24 112.57 551.41 112.48
  Q 545.06 111.76 540.73 116.37
  C 538.57 118.68 536.72 121.20 535.81 124.31
  Q 534.19 129.85 534.53 135.26
  C 534.87 140.55 534.77 145.73 534.87 151.11
  Q 534.90 152.62 533.40 152.53
  L 531.04 152.39
  Q 529.77 152.31 529.80 151.05
  C 530.02 140.10 530.43 129.05 529.29 118.32
  Q 528.78 113.59 528.90 108.29
  Q 528.92 107.44 529.76 107.45
  L 533.52 107.50
  Q 534.57 107.52 534.46 108.57
  Q 534.04 112.43 534.04 116.79
  Q 534.04 117.69 534.93 118.09
  Z"
/>
<path fill="#1c1d1f" d="
  M 746.76 117.32
  A 1.36 1.35 -52.4 0 0 748.97 117.03
  Q 753.64 108.02 763.26 106.99
  Q 764.43 106.87 764.52 108.04
  Q 764.66 109.99 764.19 111.73
  A 0.72 0.70 -79.6 0 1 763.45 112.25
  C 756.07 111.72 750.26 117.89 748.04 124.24
  Q 746.78 127.87 746.90 133.11
  Q 747.13 142.22 746.97 151.55
  Q 746.95 152.58 745.92 152.53
  L 743.39 152.42
  A 1.43 1.42 -88.7 0 1 742.03 150.99
  Q 742.03 136.14 742.04 122.01
  C 742.04 117.52 741.39 113.09 741.47 108.56
  Q 741.50 107.49 742.57 107.50
  L 745.45 107.52
  Q 746.87 107.53 746.67 108.94
  Q 746.21 112.27 746.07 115.31
  Q 746.02 116.51 746.76 117.32
  Z"
/>
<path fill="#1c1d1f" d="
  M 313.0087 152.8576
  A 23.22 22.17 78.3 0 1 286.5906 134.6158
  A 23.22 22.17 78.3 0 1 303.5913 107.3824
  A 23.22 22.17 78.3 0 1 330.0094 125.6242
  A 23.22 22.17 78.3 0 1 313.0087 152.8576
  Z
  M 319.12 145.78
  C 330.35 138.08 327.31 113.58 312.42 111.75
  Q 307.21 111.11 303.25 111.83
  C 287.25 114.74 287.18 139.90 299.67 147.01
  Q 309.31 152.51 319.12 145.78
  Z"
/>
<rect fill="#1c1d1f" x="-2.41" y="-22.46" transform="translate(482.19,129.93) rotate(-0.8)" width="4.82" height="44.92" rx="0.42"/>
<path fill="#1c1d1f" d="
  M 596.94 113.25
  C 597.59 111.76 597.21 110.07 596.96 108.50
  A 0.70 0.69 80.6 0 1 597.52 107.71
  Q 599.49 107.33 601.65 107.61
  A 0.74 0.74 0.0 0 1 602.29 108.38
  Q 601.71 119.73 602.35 132.04
  Q 602.60 136.79 602.71 151.27
  Q 602.72 152.50 601.49 152.51
  L 599.49 152.54
  A 1.54 1.53 0.2 0 1 597.94 150.99
  L 597.99 147.41
  Q 598.00 146.85 597.57 146.50
  Q 596.18 145.32 594.78 146.80
  C 588.83 153.06 580.91 154.86 572.65 151.80
  C 563.07 148.24 557.43 137.64 558.16 127.63
  Q 558.61 121.40 562.19 115.94
  Q 568.86 105.78 582.89 107.59
  Q 589.44 108.43 594.97 113.65
  A 1.23 1.23 0.0 0 0 596.94 113.25
  Z
  M 586.51 148.27
  Q 597.46 144.22 597.80 132.50
  Q 597.99 126.00 596.89 122.49
  C 594.96 116.36 589.14 111.72 582.34 111.45
  Q 577.87 111.28 574.89 111.94
  C 565.00 114.14 561.72 124.93 563.18 134.01
  C 564.93 144.92 575.81 152.23 586.51 148.27
  Z"
/>
<rect fill="#1c1d1f" x="-2.37" y="-22.55" transform="translate(619.40,129.92) rotate(-1.0)" width="4.74" height="45.10" rx="0.85"/>
<path fill="#1c1d1f" d="
  M 640.72 113.81
  A 0.77 0.76 65.6 0 0 641.94 114.27
  C 647.48 110.00 649.84 106.96 657.55 107.26
  C 664.86 107.55 670.64 110.85 673.49 117.85
  C 674.97 121.49 675.79 126.19 675.72 130.22
  Q 675.53 141.04 675.74 152.03
  Q 675.75 152.65 675.14 152.61
  L 672.02 152.42
  Q 671.10 152.36 671.09 151.44
  Q 670.97 139.18 670.76 126.10
  C 670.64 118.81 666.81 112.07 658.83 111.53
  C 651.79 111.06 646.16 112.41 642.48 119.13
  Q 641.13 121.59 641.22 128.15
  Q 641.37 139.16 641.30 151.73
  Q 641.30 152.55 640.48 152.55
  L 637.53 152.53
  Q 636.71 152.52 636.73 151.71
  C 636.80 148.50 636.31 145.38 636.33 142.20
  Q 636.39 127.72 636.23 114.54
  Q 636.19 111.84 635.54 108.98
  Q 635.25 107.74 636.51 107.56
  Q 638.48 107.29 640.53 107.71
  Q 641.23 107.86 641.03 108.55
  Q 640.24 111.29 640.72 113.81
  Z"
/>
<path fill="#1c1d1f" d="
  M 691.68 132.64
  Q 691.56 133.03 691.62 133.43
  C 694.02 149.28 713.46 155.42 723.31 142.35
  Q 723.89 141.57 724.86 141.52
  L 728.48 141.33
  A 0.55 0.55 0.0 0 1 728.96 142.20
  Q 724.24 149.05 719.35 151.19
  C 703.82 158.00 687.42 147.27 686.95 130.58
  Q 686.69 121.49 690.74 115.87
  Q 696.40 108.00 705.51 107.34
  Q 713.62 106.75 720.17 110.27
  C 727.85 114.39 730.36 123.08 731.40 131.48
  A 0.57 0.57 0.0 0 1 730.77 132.12
  Q 728.65 131.86 726.59 131.84
  Q 709.48 131.59 692.74 131.86
  Q 691.93 131.87 691.68 132.64
  Z
  M 692.57 127.85
  L 724.91 128.13
  A 0.94 0.94 0.0 0 0 725.86 127.20
  L 725.86 127.00
  A 15.32 15.15 -89.5 0 0 710.84 111.55
  L 706.92 111.51
  A 15.32 15.15 -89.5 0 0 691.64 126.70
  L 691.64 126.90
  A 0.94 0.94 0.0 0 0 692.57 127.85
  Z"
/>
<path fill="#1c1d1f" d="
  M 375.46 115.52
  Q 376.54 117.16 377.85 115.69
  C 379.87 113.45 381.30 110.88 384.07 109.42
  Q 389.80 106.40 396.05 107.63
  Q 406.44 109.69 408.88 120.45
  Q 409.54 123.38 409.54 128.40
  Q 409.55 132.32 409.78 136.32
  Q 410.23 144.07 410.06 151.45
  Q 410.03 152.51 408.97 152.47
  L 406.25 152.39
  A 1.19 1.18 -88.8 0 1 405.10 151.18
  Q 405.34 140.23 405.16 128.34
  C 405.11 124.41 404.56 118.77 402.21 115.61
  C 399.13 111.47 394.30 111.29 389.50 111.49
  C 382.85 111.78 378.20 117.75 378.22 124.21
  Q 378.26 136.06 378.25 145.95
  C 378.25 147.81 378.56 149.74 379.00 151.54
  A 0.67 0.67 0.0 0 1 378.50 152.35
  Q 376.49 152.78 374.54 152.24
  Q 373.94 152.08 373.96 151.46
  C 374.21 144.78 374.61 137.82 373.78 131.21
  C 373.28 127.25 373.77 123.30 372.53 119.40
  C 370.27 112.26 363.57 110.33 356.85 111.69
  Q 349.80 113.12 347.87 119.08
  Q 346.31 123.88 346.76 128.22
  C 347.56 135.90 347.15 143.88 347.27 151.34
  Q 347.29 152.57 346.06 152.52
  L 343.86 152.44
  Q 342.66 152.39 342.73 151.19
  C 342.91 147.91 342.41 144.30 342.43 141.27
  Q 342.51 127.74 342.21 113.25
  Q 342.17 111.23 341.36 108.86
  A 1.04 1.04 0.0 0 1 342.38 107.48
  L 345.65 107.59
  Q 346.67 107.62 346.63 108.64
  L 346.44 112.97
  A 1.23 1.22 3.1 0 0 347.59 114.24
  Q 348.68 114.32 349.39 113.43
  C 351.35 110.99 353.06 108.65 356.32 107.92
  C 361.94 106.65 367.39 107.44 372.03 111.00
  C 373.63 112.23 374.38 113.88 375.46 115.52
  Z"
/>
</svg>
